ply
format ascii 1.0
element vertex 1040
property float x
property float y
property float z
element face 2076
property list uchar int vertex_index
end_header
0.0 0.0 0.0
-1.8125 0.0 0.0
-3.625 0.0 0.0
-5.4375 0.0 0.0
-7.25 0.0 0.0
-7.25 0.1775 0.0
-7.25 0.355 0.0
-7.25 0.5325 0.0
-7.25 0.71 0.0
-5.6721873 0.71 0.0
-4.094375 0.71 0.0
-2.5165625 0.71 0.0
-0.93875 0.71 0.0
-0.74788666 0.7479651 0.0
-0.5860805 0.8560805 0.0
-0.4779651 1.0178866 0.0
-0.44 1.20875 0.0
-0.44 2.6565626 0.0
-0.44 4.104375 0.0
-0.44 5.5521874 0.0
-0.44 7.0 0.0
-0.44 8.447812 0.0
-0.44 9.895625 0.0
-0.44 11.343437 0.0
-0.44 12.79125 0.0
-0.4779651 12.982114 0.0
-0.5860805 13.14392 0.0
-0.74788666 13.252035 0.0
-0.93875 13.29 0.0
-2.5165625 13.29 0.0
-4.094375 13.29 0.0
-5.6721873 13.29 0.0
-7.25 13.29 0.0
-7.25 13.4675 0.0
-7.25 13.645 0.0
-7.25 13.8225 0.0
-7.25 14.0 0.0
-5.4375 14.0 0.0
-3.625 14.0 0.0
-1.8125 14.0 0.0
0.0 14.0 0.0
1.8125 14.0 0.0
3.625 14.0 0.0
5.4375 14.0 0.0
7.25 14.0 0.0
7.25 13.8225 0.0
7.25 13.645 0.0
7.25 13.4675 0.0
7.25 13.29 0.0
5.6721873 13.29 0.0
4.094375 13.29 0.0
2.5165625 13.29 0.0
0.93875 13.29 0.0
0.74788666 13.252035 0.0
0.5860805 13.14392 0.0
0.4779651 12.982114 0.0
0.44 12.79125 0.0
0.44 11.343437 0.0
0.44 9.895625 0.0
0.44 8.447812 0.0
0.44 7.0 0.0
0.44 5.5521874 0.0
0.44 4.104375 0.0
0.44 2.6565626 0.0
0.44 1.20875 0.0
0.4779651 1.0178866 0.0
0.5860805 0.8560805 0.0
0.74788666 0.7479651 0.0
0.93875 0.71 0.0
2.5165625 0.71 0.0
4.094375 0.71 0.0
5.6721873 0.71 0.0
7.25 0.71 0.0
7.25 0.5325 0.0
7.25 0.355 0.0
7.25 0.1775 0.0
7.25 0.0 0.0
5.4375 0.0 0.0
3.625 0.0 0.0
1.8125 0.0 0.0
0.0 0.0 13.0
-1.8125 0.0 13.0
-3.625 0.0 13.0
-5.4375 0.0 13.0
-7.25 0.0 13.0
-7.25 0.1775 13.0
-7.25 0.355 13.0
-7.25 0.5325 13.0
-7.25 0.71 13.0
-5.6721873 0.71 13.0
-4.094375 0.71 13.0
-2.5165625 0.71 13.0
-0.93875 0.71 13.0
-0.74788666 0.7479651 13.0
-0.5860805 0.8560805 13.0
-0.4779651 1.0178866 13.0
-0.44 1.20875 13.0
-0.44 2.6565626 13.0
-0.44 4.104375 13.0
-0.44 5.5521874 13.0
-0.44 7.0 13.0
-0.44 8.447812 13.0
-0.44 9.895625 13.0
-0.44 11.343437 13.0
-0.44 12.79125 13.0
-0.4779651 12.982114 13.0
-0.5860805 13.14392 13.0
-0.74788666 13.252035 13.0
-0.93875 13.29 13.0
-2.5165625 13.29 13.0
-4.094375 13.29 13.0
-5.6721873 13.29 13.0
-7.25 13.29 13.0
-7.25 13.4675 13.0
-7.25 13.645 13.0
-7.25 13.8225 13.0
-7.25 14.0 13.0
-5.4375 14.0 13.0
-3.625 14.0 13.0
-1.8125 14.0 13.0
0.0 14.0 13.0
1.8125 14.0 13.0
3.625 14.0 13.0
5.4375 14.0 13.0
7.25 14.0 13.0
7.25 13.8225 13.0
7.25 13.645 13.0
7.25 13.4675 13.0
7.25 13.29 13.0
5.6721873 13.29 13.0
4.094375 13.29 13.0
2.5165625 13.29 13.0
0.93875 13.29 13.0
0.74788666 13.252035 13.0
0.5860805 13.14392 13.0
0.4779651 12.982114 13.0
0.44 12.79125 13.0
0.44 11.343437 13.0
0.44 9.895625 13.0
0.44 8.447812 13.0
0.44 7.0 13.0
0.44 5.5521874 13.0
0.44 4.104375 13.0
0.44 2.6565626 13.0
0.44 1.20875 13.0
0.4779651 1.0178866 13.0
0.5860805 0.8560805 13.0
0.74788666 0.7479651 13.0
0.93875 0.71 13.0
2.5165625 0.71 13.0
4.094375 0.71 13.0
5.6721873 0.71 13.0
7.25 0.71 13.0
7.25 0.5325 13.0
7.25 0.355 13.0
7.25 0.1775 13.0
7.25 0.0 13.0
5.4375 0.0 13.0
3.625 0.0 13.0
1.8125 0.0 13.0
0.0 0.0 26.0
-1.8125 0.0 26.0
-3.625 0.0 26.0
-5.4375 0.0 26.0
-7.25 0.0 26.0
-7.25 0.1775 26.0
-7.25 0.355 26.0
-7.25 0.5325 26.0
-7.25 0.71 26.0
-5.6721873 0.71 26.0
-4.094375 0.71 26.0
-2.5165625 0.71 26.0
-0.93875 0.71 26.0
-0.74788666 0.7479651 26.0
-0.5860805 0.8560805 26.0
-0.4779651 1.0178866 26.0
-0.44 1.20875 26.0
-0.44 2.6565626 26.0
-0.44 4.104375 26.0
-0.44 5.5521874 26.0
-0.44 7.0 26.0
-0.44 8.447812 26.0
-0.44 9.895625 26.0
-0.44 11.343437 26.0
-0.44 12.79125 26.0
-0.4779651 12.982114 26.0
-0.5860805 13.14392 26.0
-0.74788666 13.252035 26.0
-0.93875 13.29 26.0
-2.5165625 13.29 26.0
-4.094375 13.29 26.0
-5.6721873 13.29 26.0
-7.25 13.29 26.0
-7.25 13.4675 26.0
-7.25 13.645 26.0
-7.25 13.8225 26.0
-7.25 14.0 26.0
-5.4375 14.0 26.0
-3.625 14.0 26.0
-1.8125 14.0 26.0
0.0 14.0 26.0
1.8125 14.0 26.0
3.625 14.0 26.0
5.4375 14.0 26.0
7.25 14.0 26.0
7.25 13.8225 26.0
7.25 13.645 26.0
7.25 13.4675 26.0
7.25 13.29 26.0
5.6721873 13.29 26.0
4.094375 13.29 26.0
2.5165625 13.29 26.0
0.93875 13.29 26.0
0.74788666 13.252035 26.0
0.5860805 13.14392 26.0
0.4779651 12.982114 26.0
0.44 12.79125 26.0
0.44 11.343437 26.0
0.44 9.895625 26.0
0.44 8.447812 26.0
0.44 7.0 26.0
0.44 5.5521874 26.0
0.44 4.104375 26.0
0.44 2.6565626 26.0
0.44 1.20875 26.0
0.4779651 1.0178866 26.0
0.5860805 0.8560805 26.0
0.74788666 0.7479651 26.0
0.93875 0.71 26.0
2.5165625 0.71 26.0
4.094375 0.71 26.0
5.6721873 0.71 26.0
7.25 0.71 26.0
7.25 0.5325 26.0
7.25 0.355 26.0
7.25 0.1775 26.0
7.25 0.0 26.0
5.4375 0.0 26.0
3.625 0.0 26.0
1.8125 0.0 26.0
0.0 0.0 39.0
-1.8125 0.0 39.0
-3.625 0.0 39.0
-5.4375 0.0 39.0
-7.25 0.0 39.0
-7.25 0.1775 39.0
-7.25 0.355 39.0
-7.25 0.5325 39.0
-7.25 0.71 39.0
-5.6721873 0.71 39.0
-4.094375 0.71 39.0
-2.5165625 0.71 39.0
-0.93875 0.71 39.0
-0.74788666 0.7479651 39.0
-0.5860805 0.8560805 39.0
-0.4779651 1.0178866 39.0
-0.44 1.20875 39.0
-0.44 2.6565626 39.0
-0.44 4.104375 39.0
-0.44 5.5521874 39.0
-0.44 7.0 39.0
-0.44 8.447812 39.0
-0.44 9.895625 39.0
-0.44 11.343437 39.0
-0.44 12.79125 39.0
-0.4779651 12.982114 39.0
-0.5860805 13.14392 39.0
-0.74788666 13.252035 39.0
-0.93875 13.29 39.0
-2.5165625 13.29 39.0
-4.094375 13.29 39.0
-5.6721873 13.29 39.0
-7.25 13.29 39.0
-7.25 13.4675 39.0
-7.25 13.645 39.0
-7.25 13.8225 39.0
-7.25 14.0 39.0
-5.4375 14.0 39.0
-3.625 14.0 39.0
-1.8125 14.0 39.0
0.0 14.0 39.0
1.8125 14.0 39.0
3.625 14.0 39.0
5.4375 14.0 39.0
7.25 14.0 39.0
7.25 13.8225 39.0
7.25 13.645 39.0
7.25 13.4675 39.0
7.25 13.29 39.0
5.6721873 13.29 39.0
4.094375 13.29 39.0
2.5165625 13.29 39.0
0.93875 13.29 39.0
0.74788666 13.252035 39.0
0.5860805 13.14392 39.0
0.4779651 12.982114 39.0
0.44 12.79125 39.0
0.44 11.343437 39.0
0.44 9.895625 39.0
0.44 8.447812 39.0
0.44 7.0 39.0
0.44 5.5521874 39.0
0.44 4.104375 39.0
0.44 2.6565626 39.0
0.44 1.20875 39.0
0.4779651 1.0178866 39.0
0.5860805 0.8560805 39.0
0.74788666 0.7479651 39.0
0.93875 0.71 39.0
2.5165625 0.71 39.0
4.094375 0.71 39.0
5.6721873 0.71 39.0
7.25 0.71 39.0
7.25 0.5325 39.0
7.25 0.355 39.0
7.25 0.1775 39.0
7.25 0.0 39.0
5.4375 0.0 39.0
3.625 0.0 39.0
1.8125 0.0 39.0
0.0 0.0 52.0
-1.8125 0.0 52.0
-3.625 0.0 52.0
-5.4375 0.0 52.0
-7.25 0.0 52.0
-7.25 0.1775 52.0
-7.25 0.355 52.0
-7.25 0.5325 52.0
-7.25 0.71 52.0
-5.6721873 0.71 52.0
-4.094375 0.71 52.0
-2.5165625 0.71 52.0
-0.93875 0.71 52.0
-0.74788666 0.7479651 52.0
-0.5860805 0.8560805 52.0
-0.4779651 1.0178866 52.0
-0.44 1.20875 52.0
-0.44 2.6565626 52.0
-0.44 4.104375 52.0
-0.44 5.5521874 52.0
-0.44 7.0 52.0
-0.44 8.447812 52.0
-0.44 9.895625 52.0
-0.44 11.343437 52.0
-0.44 12.79125 52.0
-0.4779651 12.982114 52.0
-0.5860805 13.14392 52.0
-0.74788666 13.252035 52.0
-0.93875 13.29 52.0
-2.5165625 13.29 52.0
-4.094375 13.29 52.0
-5.6721873 13.29 52.0
-7.25 13.29 52.0
-7.25 13.4675 52.0
-7.25 13.645 52.0
-7.25 13.8225 52.0
-7.25 14.0 52.0
-5.4375 14.0 52.0
-3.625 14.0 52.0
-1.8125 14.0 52.0
0.0 14.0 52.0
1.8125 14.0 52.0
3.625 14.0 52.0
5.4375 14.0 52.0
7.25 14.0 52.0
7.25 13.8225 52.0
7.25 13.645 52.0
7.25 13.4675 52.0
7.25 13.29 52.0
5.6721873 13.29 52.0
4.094375 13.29 52.0
2.5165625 13.29 52.0
0.93875 13.29 52.0
0.74788666 13.252035 52.0
0.5860805 13.14392 52.0
0.4779651 12.982114 52.0
0.44 12.79125 52.0
0.44 11.343437 52.0
0.44 9.895625 52.0
0.44 8.447812 52.0
0.44 7.0 52.0
0.44 5.5521874 52.0
0.44 4.104375 52.0
0.44 2.6565626 52.0
0.44 1.20875 52.0
0.4779651 1.0178866 52.0
0.5860805 0.8560805 52.0
0.74788666 0.7479651 52.0
0.93875 0.71 52.0
2.5165625 0.71 52.0
4.094375 0.71 52.0
5.6721873 0.71 52.0
7.25 0.71 52.0
7.25 0.5325 52.0
7.25 0.355 52.0
7.25 0.1775 52.0
7.25 0.0 52.0
5.4375 0.0 52.0
3.625 0.0 52.0
1.8125 0.0 52.0
0.0 0.0 65.0
-1.8125 0.0 65.0
-3.625 0.0 65.0
-5.4375 0.0 65.0
-7.25 0.0 65.0
-7.25 0.1775 65.0
-7.25 0.355 65.0
-7.25 0.5325 65.0
-7.25 0.71 65.0
-5.6721873 0.71 65.0
-4.094375 0.71 65.0
-2.5165625 0.71 65.0
-0.93875 0.71 65.0
-0.74788666 0.7479651 65.0
-0.5860805 0.8560805 65.0
-0.4779651 1.0178866 65.0
-0.44 1.20875 65.0
-0.44 2.6565626 65.0
-0.44 4.104375 65.0
-0.44 5.5521874 65.0
-0.44 7.0 65.0
-0.44 8.447812 65.0
-0.44 9.895625 65.0
-0.44 11.343437 65.0
-0.44 12.79125 65.0
-0.4779651 12.982114 65.0
-0.5860805 13.14392 65.0
-0.74788666 13.252035 65.0
-0.93875 13.29 65.0
-2.5165625 13.29 65.0
-4.094375 13.29 65.0
-5.6721873 13.29 65.0
-7.25 13.29 65.0
-7.25 13.4675 65.0
-7.25 13.645 65.0
-7.25 13.8225 65.0
-7.25 14.0 65.0
-5.4375 14.0 65.0
-3.625 14.0 65.0
-1.8125 14.0 65.0
0.0 14.0 65.0
1.8125 14.0 65.0
3.625 14.0 65.0
5.4375 14.0 65.0
7.25 14.0 65.0
7.25 13.8225 65.0
7.25 13.645 65.0
7.25 13.4675 65.0
7.25 13.29 65.0
5.6721873 13.29 65.0
4.094375 13.29 65.0
2.5165625 13.29 65.0
0.93875 13.29 65.0
0.74788666 13.252035 65.0
0.5860805 13.14392 65.0
0.4779651 12.982114 65.0
0.44 12.79125 65.0
0.44 11.343437 65.0
0.44 9.895625 65.0
0.44 8.447812 65.0
0.44 7.0 65.0
0.44 5.5521874 65.0
0.44 4.104375 65.0
0.44 2.6565626 65.0
0.44 1.20875 65.0
0.4779651 1.0178866 65.0
0.5860805 0.8560805 65.0
0.74788666 0.7479651 65.0
0.93875 0.71 65.0
2.5165625 0.71 65.0
4.094375 0.71 65.0
5.6721873 0.71 65.0
7.25 0.71 65.0
7.25 0.5325 65.0
7.25 0.355 65.0
7.25 0.1775 65.0
7.25 0.0 65.0
5.4375 0.0 65.0
3.625 0.0 65.0
1.8125 0.0 65.0
0.0 0.0 78.0
-1.8125 0.0 78.0
-3.625 0.0 78.0
-5.4375 0.0 78.0
-7.25 0.0 78.0
-7.25 0.1775 78.0
-7.25 0.355 78.0
-7.25 0.5325 78.0
-7.25 0.71 78.0
-5.6721873 0.71 78.0
-4.094375 0.71 78.0
-2.5165625 0.71 78.0
-0.93875 0.71 78.0
-0.74788666 0.7479651 78.0
-0.5860805 0.8560805 78.0
-0.4779651 1.0178866 78.0
-0.44 1.20875 78.0
-0.44 2.6565626 78.0
-0.44 4.104375 78.0
-0.44 5.5521874 78.0
-0.44 7.0 78.0
-0.44 8.447812 78.0
-0.44 9.895625 78.0
-0.44 11.343437 78.0
-0.44 12.79125 78.0
-0.4779651 12.982114 78.0
-0.5860805 13.14392 78.0
-0.74788666 13.252035 78.0
-0.93875 13.29 78.0
-2.5165625 13.29 78.0
-4.094375 13.29 78.0
-5.6721873 13.29 78.0
-7.25 13.29 78.0
-7.25 13.4675 78.0
-7.25 13.645 78.0
-7.25 13.8225 78.0
-7.25 14.0 78.0
-5.4375 14.0 78.0
-3.625 14.0 78.0
-1.8125 14.0 78.0
0.0 14.0 78.0
1.8125 14.0 78.0
3.625 14.0 78.0
5.4375 14.0 78.0
7.25 14.0 78.0
7.25 13.8225 78.0
7.25 13.645 78.0
7.25 13.4675 78.0
7.25 13.29 78.0
5.6721873 13.29 78.0
4.094375 13.29 78.0
2.5165625 13.29 78.0
0.93875 13.29 78.0
0.74788666 13.252035 78.0
0.5860805 13.14392 78.0
0.4779651 12.982114 78.0
0.44 12.79125 78.0
0.44 11.343437 78.0
0.44 9.895625 78.0
0.44 8.447812 78.0
0.44 7.0 78.0
0.44 5.5521874 78.0
0.44 4.104375 78.0
0.44 2.6565626 78.0
0.44 1.20875 78.0
0.4779651 1.0178866 78.0
0.5860805 0.8560805 78.0
0.74788666 0.7479651 78.0
0.93875 0.71 78.0
2.5165625 0.71 78.0
4.094375 0.71 78.0
5.6721873 0.71 78.0
7.25 0.71 78.0
7.25 0.5325 78.0
7.25 0.355 78.0
7.25 0.1775 78.0
7.25 0.0 78.0
5.4375 0.0 78.0
3.625 0.0 78.0
1.8125 0.0 78.0
0.0 0.0 91.0
-1.8125 0.0 91.0
-3.625 0.0 91.0
-5.4375 0.0 91.0
-7.25 0.0 91.0
-7.25 0.1775 91.0
-7.25 0.355 91.0
-7.25 0.5325 91.0
-7.25 0.71 91.0
-5.6721873 0.71 91.0
-4.094375 0.71 91.0
-2.5165625 0.71 91.0
-0.93875 0.71 91.0
-0.74788666 0.7479651 91.0
-0.5860805 0.8560805 91.0
-0.4779651 1.0178866 91.0
-0.44 1.20875 91.0
-0.44 2.6565626 91.0
-0.44 4.104375 91.0
-0.44 5.5521874 91.0
-0.44 7.0 91.0
-0.44 8.447812 91.0
-0.44 9.895625 91.0
-0.44 11.343437 91.0
-0.44 12.79125 91.0
-0.4779651 12.982114 91.0
-0.5860805 13.14392 91.0
-0.74788666 13.252035 91.0
-0.93875 13.29 91.0
-2.5165625 13.29 91.0
-4.094375 13.29 91.0
-5.6721873 13.29 91.0
-7.25 13.29 91.0
-7.25 13.4675 91.0
-7.25 13.645 91.0
-7.25 13.8225 91.0
-7.25 14.0 91.0
-5.4375 14.0 91.0
-3.625 14.0 91.0
-1.8125 14.0 91.0
0.0 14.0 91.0
1.8125 14.0 91.0
3.625 14.0 91.0
5.4375 14.0 91.0
7.25 14.0 91.0
7.25 13.8225 91.0
7.25 13.645 91.0
7.25 13.4675 91.0
7.25 13.29 91.0
5.6721873 13.29 91.0
4.094375 13.29 91.0
2.5165625 13.29 91.0
0.93875 13.29 91.0
0.74788666 13.252035 91.0
0.5860805 13.14392 91.0
0.4779651 12.982114 91.0
0.44 12.79125 91.0
0.44 11.343437 91.0
0.44 9.895625 91.0
0.44 8.447812 91.0
0.44 7.0 91.0
0.44 5.5521874 91.0
0.44 4.104375 91.0
0.44 2.6565626 91.0
0.44 1.20875 91.0
0.4779651 1.0178866 91.0
0.5860805 0.8560805 91.0
0.74788666 0.7479651 91.0
0.93875 0.71 91.0
2.5165625 0.71 91.0
4.094375 0.71 91.0
5.6721873 0.71 91.0
7.25 0.71 91.0
7.25 0.5325 91.0
7.25 0.355 91.0
7.25 0.1775 91.0
7.25 0.0 91.0
5.4375 0.0 91.0
3.625 0.0 91.0
1.8125 0.0 91.0
0.0 0.0 104.0
-1.8125 0.0 104.0
-3.625 0.0 104.0
-5.4375 0.0 104.0
-7.25 0.0 104.0
-7.25 0.1775 104.0
-7.25 0.355 104.0
-7.25 0.5325 104.0
-7.25 0.71 104.0
-5.6721873 0.71 104.0
-4.094375 0.71 104.0
-2.5165625 0.71 104.0
-0.93875 0.71 104.0
-0.74788666 0.7479651 104.0
-0.5860805 0.8560805 104.0
-0.4779651 1.0178866 104.0
-0.44 1.20875 104.0
-0.44 2.6565626 104.0
-0.44 4.104375 104.0
-0.44 5.5521874 104.0
-0.44 7.0 104.0
-0.44 8.447812 104.0
-0.44 9.895625 104.0
-0.44 11.343437 104.0
-0.44 12.79125 104.0
-0.4779651 12.982114 104.0
-0.5860805 13.14392 104.0
-0.74788666 13.252035 104.0
-0.93875 13.29 104.0
-2.5165625 13.29 104.0
-4.094375 13.29 104.0
-5.6721873 13.29 104.0
-7.25 13.29 104.0
-7.25 13.4675 104.0
-7.25 13.645 104.0
-7.25 13.8225 104.0
-7.25 14.0 104.0
-5.4375 14.0 104.0
-3.625 14.0 104.0
-1.8125 14.0 104.0
0.0 14.0 104.0
1.8125 14.0 104.0
3.625 14.0 104.0
5.4375 14.0 104.0
7.25 14.0 104.0
7.25 13.8225 104.0
7.25 13.645 104.0
7.25 13.4675 104.0
7.25 13.29 104.0
5.6721873 13.29 104.0
4.094375 13.29 104.0
2.5165625 13.29 104.0
0.93875 13.29 104.0
0.74788666 13.252035 104.0
0.5860805 13.14392 104.0
0.4779651 12.982114 104.0
0.44 12.79125 104.0
0.44 11.343437 104.0
0.44 9.895625 104.0
0.44 8.447812 104.0
0.44 7.0 104.0
0.44 5.5521874 104.0
0.44 4.104375 104.0
0.44 2.6565626 104.0
0.44 1.20875 104.0
0.4779651 1.0178866 104.0
0.5860805 0.8560805 104.0
0.74788666 0.7479651 104.0
0.93875 0.71 104.0
2.5165625 0.71 104.0
4.094375 0.71 104.0
5.6721873 0.71 104.0
7.25 0.71 104.0
7.25 0.5325 104.0
7.25 0.355 104.0
7.25 0.1775 104.0
7.25 0.0 104.0
5.4375 0.0 104.0
3.625 0.0 104.0
1.8125 0.0 104.0
0.0 0.0 117.0
-1.8125 0.0 117.0
-3.625 0.0 117.0
-5.4375 0.0 117.0
-7.25 0.0 117.0
-7.25 0.1775 117.0
-7.25 0.355 117.0
-7.25 0.5325 117.0
-7.25 0.71 117.0
-5.6721873 0.71 117.0
-4.094375 0.71 117.0
-2.5165625 0.71 117.0
-0.93875 0.71 117.0
-0.74788666 0.7479651 117.0
-0.5860805 0.8560805 117.0
-0.4779651 1.0178866 117.0
-0.44 1.20875 117.0
-0.44 2.6565626 117.0
-0.44 4.104375 117.0
-0.44 5.5521874 117.0
-0.44 7.0 117.0
-0.44 8.447812 117.0
-0.44 9.895625 117.0
-0.44 11.343437 117.0
-0.44 12.79125 117.0
-0.4779651 12.982114 117.0
-0.5860805 13.14392 117.0
-0.74788666 13.252035 117.0
-0.93875 13.29 117.0
-2.5165625 13.29 117.0
-4.094375 13.29 117.0
-5.6721873 13.29 117.0
-7.25 13.29 117.0
-7.25 13.4675 117.0
-7.25 13.645 117.0
-7.25 13.8225 117.0
-7.25 14.0 117.0
-5.4375 14.0 117.0
-3.625 14.0 117.0
-1.8125 14.0 117.0
0.0 14.0 117.0
1.8125 14.0 117.0
3.625 14.0 117.0
5.4375 14.0 117.0
7.25 14.0 117.0
7.25 13.8225 117.0
7.25 13.645 117.0
7.25 13.4675 117.0
7.25 13.29 117.0
5.6721873 13.29 117.0
4.094375 13.29 117.0
2.5165625 13.29 117.0
0.93875 13.29 117.0
0.74788666 13.252035 117.0
0.5860805 13.14392 117.0
0.4779651 12.982114 117.0
0.44 12.79125 117.0
0.44 11.343437 117.0
0.44 9.895625 117.0
0.44 8.447812 117.0
0.44 7.0 117.0
0.44 5.5521874 117.0
0.44 4.104375 117.0
0.44 2.6565626 117.0
0.44 1.20875 117.0
0.4779651 1.0178866 117.0
0.5860805 0.8560805 117.0
0.74788666 0.7479651 117.0
0.93875 0.71 117.0
2.5165625 0.71 117.0
4.094375 0.71 117.0
5.6721873 0.71 117.0
7.25 0.71 117.0
7.25 0.5325 117.0
7.25 0.355 117.0
7.25 0.1775 117.0
7.25 0.0 117.0
5.4375 0.0 117.0
3.625 0.0 117.0
1.8125 0.0 117.0
0.0 0.0 130.0
-1.8125 0.0 130.0
-3.625 0.0 130.0
-5.4375 0.0 130.0
-7.25 0.0 130.0
-7.25 0.1775 130.0
-7.25 0.355 130.0
-7.25 0.5325 130.0
-7.25 0.71 130.0
-5.6721873 0.71 130.0
-4.094375 0.71 130.0
-2.5165625 0.71 130.0
-0.93875 0.71 130.0
-0.74788666 0.7479651 130.0
-0.5860805 0.8560805 130.0
-0.4779651 1.0178866 130.0
-0.44 1.20875 130.0
-0.44 2.6565626 130.0
-0.44 4.104375 130.0
-0.44 5.5521874 130.0
-0.44 7.0 130.0
-0.44 8.447812 130.0
-0.44 9.895625 130.0
-0.44 11.343437 130.0
-0.44 12.79125 130.0
-0.4779651 12.982114 130.0
-0.5860805 13.14392 130.0
-0.74788666 13.252035 130.0
-0.93875 13.29 130.0
-2.5165625 13.29 130.0
-4.094375 13.29 130.0
-5.6721873 13.29 130.0
-7.25 13.29 130.0
-7.25 13.4675 130.0
-7.25 13.645 130.0
-7.25 13.8225 130.0
-7.25 14.0 130.0
-5.4375 14.0 130.0
-3.625 14.0 130.0
-1.8125 14.0 130.0
0.0 14.0 130.0
1.8125 14.0 130.0
3.625 14.0 130.0
5.4375 14.0 130.0
7.25 14.0 130.0
7.25 13.8225 130.0
7.25 13.645 130.0
7.25 13.4675 130.0
7.25 13.29 130.0
5.6721873 13.29 130.0
4.094375 13.29 130.0
2.5165625 13.29 130.0
0.93875 13.29 130.0
0.74788666 13.252035 130.0
0.5860805 13.14392 130.0
0.4779651 12.982114 130.0
0.44 12.79125 130.0
0.44 11.343437 130.0
0.44 9.895625 130.0
0.44 8.447812 130.0
0.44 7.0 130.0
0.44 5.5521874 130.0
0.44 4.104375 130.0
0.44 2.6565626 130.0
0.44 1.20875 130.0
0.4779651 1.0178866 130.0
0.5860805 0.8560805 130.0
0.74788666 0.7479651 130.0
0.93875 0.71 130.0
2.5165625 0.71 130.0
4.094375 0.71 130.0
5.6721873 0.71 130.0
7.25 0.71 130.0
7.25 0.5325 130.0
7.25 0.355 130.0
7.25 0.1775 130.0
7.25 0.0 130.0
5.4375 0.0 130.0
3.625 0.0 130.0
1.8125 0.0 130.0
0.0 0.0 143.0
-1.8125 0.0 143.0
-3.625 0.0 143.0
-5.4375 0.0 143.0
-7.25 0.0 143.0
-7.25 0.1775 143.0
-7.25 0.355 143.0
-7.25 0.5325 143.0
-7.25 0.71 143.0
-5.6721873 0.71 143.0
-4.094375 0.71 143.0
-2.5165625 0.71 143.0
-0.93875 0.71 143.0
-0.74788666 0.7479651 143.0
-0.5860805 0.8560805 143.0
-0.4779651 1.0178866 143.0
-0.44 1.20875 143.0
-0.44 2.6565626 143.0
-0.44 4.104375 143.0
-0.44 5.5521874 143.0
-0.44 7.0 143.0
-0.44 8.447812 143.0
-0.44 9.895625 143.0
-0.44 11.343437 143.0
-0.44 12.79125 143.0
-0.4779651 12.982114 143.0
-0.5860805 13.14392 143.0
-0.74788666 13.252035 143.0
-0.93875 13.29 143.0
-2.5165625 13.29 143.0
-4.094375 13.29 143.0
-5.6721873 13.29 143.0
-7.25 13.29 143.0
-7.25 13.4675 143.0
-7.25 13.645 143.0
-7.25 13.8225 143.0
-7.25 14.0 143.0
-5.4375 14.0 143.0
-3.625 14.0 143.0
-1.8125 14.0 143.0
0.0 14.0 143.0
1.8125 14.0 143.0
3.625 14.0 143.0
5.4375 14.0 143.0
7.25 14.0 143.0
7.25 13.8225 143.0
7.25 13.645 143.0
7.25 13.4675 143.0
7.25 13.29 143.0
5.6721873 13.29 143.0
4.094375 13.29 143.0
2.5165625 13.29 143.0
0.93875 13.29 143.0
0.74788666 13.252035 143.0
0.5860805 13.14392 143.0
0.4779651 12.982114 143.0
0.44 12.79125 143.0
0.44 11.343437 143.0
0.44 9.895625 143.0
0.44 8.447812 143.0
0.44 7.0 143.0
0.44 5.5521874 143.0
0.44 4.104375 143.0
0.44 2.6565626 143.0
0.44 1.20875 143.0
0.4779651 1.0178866 143.0
0.5860805 0.8560805 143.0
0.74788666 0.7479651 143.0
0.93875 0.71 143.0
2.5165625 0.71 143.0
4.094375 0.71 143.0
5.6721873 0.71 143.0
7.25 0.71 143.0
7.25 0.5325 143.0
7.25 0.355 143.0
7.25 0.1775 143.0
7.25 0.0 143.0
5.4375 0.0 143.0
3.625 0.0 143.0
1.8125 0.0 143.0
0.0 0.0 156.0
-1.8125 0.0 156.0
-3.625 0.0 156.0
-5.4375 0.0 156.0
-7.25 0.0 156.0
-7.25 0.1775 156.0
-7.25 0.355 156.0
-7.25 0.5325 156.0
-7.25 0.71 156.0
-5.6721873 0.71 156.0
-4.094375 0.71 156.0
-2.5165625 0.71 156.0
-0.93875 0.71 156.0
-0.74788666 0.7479651 156.0
-0.5860805 0.8560805 156.0
-0.4779651 1.0178866 156.0
-0.44 1.20875 156.0
-0.44 2.6565626 156.0
-0.44 4.104375 156.0
-0.44 5.5521874 156.0
-0.44 7.0 156.0
-0.44 8.447812 156.0
-0.44 9.895625 156.0
-0.44 11.343437 156.0
-0.44 12.79125 156.0
-0.4779651 12.982114 156.0
-0.5860805 13.14392 156.0
-0.74788666 13.252035 156.0
-0.93875 13.29 156.0
-2.5165625 13.29 156.0
-4.094375 13.29 156.0
-5.6721873 13.29 156.0
-7.25 13.29 156.0
-7.25 13.4675 156.0
-7.25 13.645 156.0
-7.25 13.8225 156.0
-7.25 14.0 156.0
-5.4375 14.0 156.0
-3.625 14.0 156.0
-1.8125 14.0 156.0
0.0 14.0 156.0
1.8125 14.0 156.0
3.625 14.0 156.0
5.4375 14.0 156.0
7.25 14.0 156.0
7.25 13.8225 156.0
7.25 13.645 156.0
7.25 13.4675 156.0
7.25 13.29 156.0
5.6721873 13.29 156.0
4.094375 13.29 156.0
2.5165625 13.29 156.0
0.93875 13.29 156.0
0.74788666 13.252035 156.0
0.5860805 13.14392 156.0
0.4779651 12.982114 156.0
0.44 12.79125 156.0
0.44 11.343437 156.0
0.44 9.895625 156.0
0.44 8.447812 156.0
0.44 7.0 156.0
0.44 5.5521874 156.0
0.44 4.104375 156.0
0.44 2.6565626 156.0
0.44 1.20875 156.0
0.4779651 1.0178866 156.0
0.5860805 0.8560805 156.0
0.74788666 0.7479651 156.0
0.93875 0.71 156.0
2.5165625 0.71 156.0
4.094375 0.71 156.0
5.6721873 0.71 156.0
7.25 0.71 156.0
7.25 0.5325 156.0
7.25 0.355 156.0
7.25 0.1775 156.0
7.25 0.0 156.0
5.4375 0.0 156.0
3.625 0.0 156.0
1.8125 0.0 156.0
3 0 1 81
3 1 2 82
3 2 3 83
3 3 4 84
3 4 5 85
3 5 6 86
3 6 7 87
3 7 8 88
3 8 9 89
3 9 10 90
3 10 11 91
3 11 12 92
3 12 13 93
3 13 14 94
3 14 15 95
3 15 16 96
3 16 17 97
3 17 18 98
3 18 19 99
3 19 20 100
3 20 21 101
3 21 22 102
3 22 23 103
3 23 24 104
3 24 25 105
3 25 26 106
3 26 27 107
3 27 28 108
3 28 29 109
3 29 30 110
3 30 31 111
3 31 32 112
3 32 33 113
3 33 34 114
3 34 35 115
3 35 36 116
3 36 37 117
3 37 38 118
3 38 39 119
3 39 40 120
3 40 41 121
3 41 42 122
3 42 43 123
3 43 44 124
3 44 45 125
3 45 46 126
3 46 47 127
3 47 48 128
3 48 49 129
3 49 50 130
3 50 51 131
3 51 52 132
3 52 53 133
3 53 54 134
3 54 55 135
3 55 56 136
3 56 57 137
3 57 58 138
3 58 59 139
3 59 60 140
3 60 61 141
3 61 62 142
3 62 63 143
3 63 64 144
3 64 65 145
3 65 66 146
3 66 67 147
3 67 68 148
3 68 69 149
3 69 70 150
3 70 71 151
3 71 72 152
3 72 73 153
3 73 74 154
3 74 75 155
3 75 76 156
3 76 77 157
3 77 78 158
3 78 79 159
3 79 1 81
3 80 81 161
3 81 82 162
3 82 83 163
3 83 84 164
3 84 85 165
3 85 86 166
3 86 87 167
3 87 88 168
3 88 89 169
3 89 90 170
3 90 91 171
3 91 92 172
3 92 93 173
3 93 94 174
3 94 95 175
3 95 96 176
3 96 97 177
3 97 98 178
3 98 99 179
3 99 100 180
3 100 101 181
3 101 102 182
3 102 103 183
3 103 104 184
3 104 105 185
3 105 106 186
3 106 107 187
3 107 108 188
3 108 109 189
3 109 110 190
3 110 111 191
3 111 112 192
3 112 113 193
3 113 114 194
3 114 115 195
3 115 116 196
3 116 117 197
3 117 118 198
3 118 119 199
3 119 120 200
3 120 121 201
3 121 122 202
3 122 123 203
3 123 124 204
3 124 125 205
3 125 126 206
3 126 127 207
3 127 128 208
3 128 129 209
3 129 130 210
3 130 131 211
3 131 132 212
3 132 133 213
3 133 134 214
3 134 135 215
3 135 136 216
3 136 137 217
3 137 138 218
3 138 139 219
3 139 140 220
3 140 141 221
3 141 142 222
3 142 143 223
3 143 144 224
3 144 145 225
3 145 146 226
3 146 147 227
3 147 148 228
3 148 149 229
3 149 150 230
3 150 151 231
3 151 152 232
3 152 153 233
3 153 154 234
3 154 155 235
3 155 156 236
3 156 157 237
3 157 158 238
3 158 159 239
3 159 81 161
3 160 161 241
3 161 162 242
3 162 163 243
3 163 164 244
3 164 165 245
3 165 166 246
3 166 167 247
3 167 168 248
3 168 169 249
3 169 170 250
3 170 171 251
3 171 172 252
3 172 173 253
3 173 174 254
3 174 175 255
3 175 176 256
3 176 177 257
3 177 178 258
3 178 179 259
3 179 180 260
3 180 181 261
3 181 182 262
3 182 183 263
3 183 184 264
3 184 185 265
3 185 186 266
3 186 187 267
3 187 188 268
3 188 189 269
3 189 190 270
3 190 191 271
3 191 192 272
3 192 193 273
3 193 194 274
3 194 195 275
3 195 196 276
3 196 197 277
3 197 198 278
3 198 199 279
3 199 200 280
3 200 201 281
3 201 202 282
3 202 203 283
3 203 204 284
3 204 205 285
3 205 206 286
3 206 207 287
3 207 208 288
3 208 209 289
3 209 210 290
3 210 211 291
3 211 212 292
3 212 213 293
3 213 214 294
3 214 215 295
3 215 216 296
3 216 217 297
3 217 218 298
3 218 219 299
3 219 220 300
3 220 221 301
3 221 222 302
3 222 223 303
3 223 224 304
3 224 225 305
3 225 226 306
3 226 227 307
3 227 228 308
3 228 229 309
3 229 230 310
3 230 231 311
3 231 232 312
3 232 233 313
3 233 234 314
3 234 235 315
3 235 236 316
3 236 237 317
3 237 238 318
3 238 239 319
3 239 161 241
3 240 241 321
3 241 242 322
3 242 243 323
3 243 244 324
3 244 245 325
3 245 246 326
3 246 247 327
3 247 248 328
3 248 249 329
3 249 250 330
3 250 251 331
3 251 252 332
3 252 253 333
3 253 254 334
3 254 255 335
3 255 256 336
3 256 257 337
3 257 258 338
3 258 259 339
3 259 260 340
3 260 261 341
3 261 262 342
3 262 263 343
3 263 264 344
3 264 265 345
3 265 266 346
3 266 267 347
3 267 268 348
3 268 269 349
3 269 270 350
3 270 271 351
3 271 272 352
3 272 273 353
3 273 274 354
3 274 275 355
3 275 276 356
3 276 277 357
3 277 278 358
3 278 279 359
3 279 280 360
3 280 281 361
3 281 282 362
3 282 283 363
3 283 284 364
3 284 285 365
3 285 286 366
3 286 287 367
3 287 288 368
3 288 289 369
3 289 290 370
3 290 291 371
3 291 292 372
3 292 293 373
3 293 294 374
3 294 295 375
3 295 296 376
3 296 297 377
3 297 298 378
3 298 299 379
3 299 300 380
3 300 301 381
3 301 302 382
3 302 303 383
3 303 304 384
3 304 305 385
3 305 306 386
3 306 307 387
3 307 308 388
3 308 309 389
3 309 310 390
3 310 311 391
3 311 312 392
3 312 313 393
3 313 314 394
3 314 315 395
3 315 316 396
3 316 317 397
3 317 318 398
3 318 319 399
3 319 241 321
3 320 321 401
3 321 322 402
3 322 323 403
3 323 324 404
3 324 325 405
3 325 326 406
3 326 327 407
3 327 328 408
3 328 329 409
3 329 330 410
3 330 331 411
3 331 332 412
3 332 333 413
3 333 334 414
3 334 335 415
3 335 336 416
3 336 337 417
3 337 338 418
3 338 339 419
3 339 340 420
3 340 341 421
3 341 342 422
3 342 343 423
3 343 344 424
3 344 345 425
3 345 346 426
3 346 347 427
3 347 348 428
3 348 349 429
3 349 350 430
3 350 351 431
3 351 352 432
3 352 353 433
3 353 354 434
3 354 355 435
3 355 356 436
3 356 357 437
3 357 358 438
3 358 359 439
3 359 360 440
3 360 361 441
3 361 362 442
3 362 363 443
3 363 364 444
3 364 365 445
3 365 366 446
3 366 367 447
3 367 368 448
3 368 369 449
3 369 370 450
3 370 371 451
3 371 372 452
3 372 373 453
3 373 374 454
3 374 375 455
3 375 376 456
3 376 377 457
3 377 378 458
3 378 379 459
3 379 380 460
3 380 381 461
3 381 382 462
3 382 383 463
3 383 384 464
3 384 385 465
3 385 386 466
3 386 387 467
3 387 388 468
3 388 389 469
3 389 390 470
3 390 391 471
3 391 392 472
3 392 393 473
3 393 394 474
3 394 395 475
3 395 396 476
3 396 397 477
3 397 398 478
3 398 399 479
3 399 321 401
3 400 401 481
3 401 402 482
3 402 403 483
3 403 404 484
3 404 405 485
3 405 406 486
3 406 407 487
3 407 408 488
3 408 409 489
3 409 410 490
3 410 411 491
3 411 412 492
3 412 413 493
3 413 414 494
3 414 415 495
3 415 416 496
3 416 417 497
3 417 418 498
3 418 419 499
3 419 420 500
3 420 421 501
3 421 422 502
3 422 423 503
3 423 424 504
3 424 425 505
3 425 426 506
3 426 427 507
3 427 428 508
3 428 429 509
3 429 430 510
3 430 431 511
3 431 432 512
3 432 433 513
3 433 434 514
3 434 435 515
3 435 436 516
3 436 437 517
3 437 438 518
3 438 439 519
3 439 440 520
3 440 441 521
3 441 442 522
3 442 443 523
3 443 444 524
3 444 445 525
3 445 446 526
3 446 447 527
3 447 448 528
3 448 449 529
3 449 450 530
3 450 451 531
3 451 452 532
3 452 453 533
3 453 454 534
3 454 455 535
3 455 456 536
3 456 457 537
3 457 458 538
3 458 459 539
3 459 460 540
3 460 461 541
3 461 462 542
3 462 463 543
3 463 464 544
3 464 465 545
3 465 466 546
3 466 467 547
3 467 468 548
3 468 469 549
3 469 470 550
3 470 471 551
3 471 472 552
3 472 473 553
3 473 474 554
3 474 475 555
3 475 476 556
3 476 477 557
3 477 478 558
3 478 479 559
3 479 401 481
3 480 481 561
3 481 482 562
3 482 483 563
3 483 484 564
3 484 485 565
3 485 486 566
3 486 487 567
3 487 488 568
3 488 489 569
3 489 490 570
3 490 491 571
3 491 492 572
3 492 493 573
3 493 494 574
3 494 495 575
3 495 496 576
3 496 497 577
3 497 498 578
3 498 499 579
3 499 500 580
3 500 501 581
3 501 502 582
3 502 503 583
3 503 504 584
3 504 505 585
3 505 506 586
3 506 507 587
3 507 508 588
3 508 509 589
3 509 510 590
3 510 511 591
3 511 512 592
3 512 513 593
3 513 514 594
3 514 515 595
3 515 516 596
3 516 517 597
3 517 518 598
3 518 519 599
3 519 520 600
3 520 521 601
3 521 522 602
3 522 523 603
3 523 524 604
3 524 525 605
3 525 526 606
3 526 527 607
3 527 528 608
3 528 529 609
3 529 530 610
3 530 531 611
3 531 532 612
3 532 533 613
3 533 534 614
3 534 535 615
3 535 536 616
3 536 537 617
3 537 538 618
3 538 539 619
3 539 540 620
3 540 541 621
3 541 542 622
3 542 543 623
3 543 544 624
3 544 545 625
3 545 546 626
3 546 547 627
3 547 548 628
3 548 549 629
3 549 550 630
3 550 551 631
3 551 552 632
3 552 553 633
3 553 554 634
3 554 555 635
3 555 556 636
3 556 557 637
3 557 558 638
3 558 559 639
3 559 481 561
3 560 561 641
3 561 562 642
3 562 563 643
3 563 564 644
3 564 565 645
3 565 566 646
3 566 567 647
3 567 568 648
3 568 569 649
3 569 570 650
3 570 571 651
3 571 572 652
3 572 573 653
3 573 574 654
3 574 575 655
3 575 576 656
3 576 577 657
3 577 578 658
3 578 579 659
3 579 580 660
3 580 581 661
3 581 582 662
3 582 583 663
3 583 584 664
3 584 585 665
3 585 586 666
3 586 587 667
3 587 588 668
3 588 589 669
3 589 590 670
3 590 591 671
3 591 592 672
3 592 593 673
3 593 594 674
3 594 595 675
3 595 596 676
3 596 597 677
3 597 598 678
3 598 599 679
3 599 600 680
3 600 601 681
3 601 602 682
3 602 603 683
3 603 604 684
3 604 605 685
3 605 606 686
3 606 607 687
3 607 608 688
3 608 609 689
3 609 610 690
3 610 611 691
3 611 612 692
3 612 613 693
3 613 614 694
3 614 615 695
3 615 616 696
3 616 617 697
3 617 618 698
3 618 619 699
3 619 620 700
3 620 621 701
3 621 622 702
3 622 623 703
3 623 624 704
3 624 625 705
3 625 626 706
3 626 627 707
3 627 628 708
3 628 629 709
3 629 630 710
3 630 631 711
3 631 632 712
3 632 633 713
3 633 634 714
3 634 635 715
3 635 636 716
3 636 637 717
3 637 638 718
3 638 639 719
3 639 561 641
3 640 641 721
3 641 642 722
3 642 643 723
3 643 644 724
3 644 645 725
3 645 646 726
3 646 647 727
3 647 648 728
3 648 649 729
3 649 650 730
3 650 651 731
3 651 652 732
3 652 653 733
3 653 654 734
3 654 655 735
3 655 656 736
3 656 657 737
3 657 658 738
3 658 659 739
3 659 660 740
3 660 661 741
3 661 662 742
3 662 663 743
3 663 664 744
3 664 665 745
3 665 666 746
3 666 667 747
3 667 668 748
3 668 669 749
3 669 670 750
3 670 671 751
3 671 672 752
3 672 673 753
3 673 674 754
3 674 675 755
3 675 676 756
3 676 677 757
3 677 678 758
3 678 679 759
3 679 680 760
3 680 681 761
3 681 682 762
3 682 683 763
3 683 684 764
3 684 685 765
3 685 686 766
3 686 687 767
3 687 688 768
3 688 689 769
3 689 690 770
3 690 691 771
3 691 692 772
3 692 693 773
3 693 694 774
3 694 695 775
3 695 696 776
3 696 697 777
3 697 698 778
3 698 699 779
3 699 700 780
3 700 701 781
3 701 702 782
3 702 703 783
3 703 704 784
3 704 705 785
3 705 706 786
3 706 707 787
3 707 708 788
3 708 709 789
3 709 710 790
3 710 711 791
3 711 712 792
3 712 713 793
3 713 714 794
3 714 715 795
3 715 716 796
3 716 717 797
3 717 718 798
3 718 719 799
3 719 641 721
3 720 721 801
3 721 722 802
3 722 723 803
3 723 724 804
3 724 725 805
3 725 726 806
3 726 727 807
3 727 728 808
3 728 729 809
3 729 730 810
3 730 731 811
3 731 732 812
3 732 733 813
3 733 734 814
3 734 735 815
3 735 736 816
3 736 737 817
3 737 738 818
3 738 739 819
3 739 740 820
3 740 741 821
3 741 742 822
3 742 743 823
3 743 744 824
3 744 745 825
3 745 746 826
3 746 747 827
3 747 748 828
3 748 749 829
3 749 750 830
3 750 751 831
3 751 752 832
3 752 753 833
3 753 754 834
3 754 755 835
3 755 756 836
3 756 757 837
3 757 758 838
3 758 759 839
3 759 760 840
3 760 761 841
3 761 762 842
3 762 763 843
3 763 764 844
3 764 765 845
3 765 766 846
3 766 767 847
3 767 768 848
3 768 769 849
3 769 770 850
3 770 771 851
3 771 772 852
3 772 773 853
3 773 774 854
3 774 775 855
3 775 776 856
3 776 777 857
3 777 778 858
3 778 779 859
3 779 780 860
3 780 781 861
3 781 782 862
3 782 783 863
3 783 784 864
3 784 785 865
3 785 786 866
3 786 787 867
3 787 788 868
3 788 789 869
3 789 790 870
3 790 791 871
3 791 792 872
3 792 793 873
3 793 794 874
3 794 795 875
3 795 796 876
3 796 797 877
3 797 798 878
3 798 799 879
3 799 721 801
3 800 801 881
3 801 802 882
3 802 803 883
3 803 804 884
3 804 805 885
3 805 806 886
3 806 807 887
3 807 808 888
3 808 809 889
3 809 810 890
3 810 811 891
3 811 812 892
3 812 813 893
3 813 814 894
3 814 815 895
3 815 816 896
3 816 817 897
3 817 818 898
3 818 819 899
3 819 820 900
3 820 821 901
3 821 822 902
3 822 823 903
3 823 824 904
3 824 825 905
3 825 826 906
3 826 827 907
3 827 828 908
3 828 829 909
3 829 830 910
3 830 831 911
3 831 832 912
3 832 833 913
3 833 834 914
3 834 835 915
3 835 836 916
3 836 837 917
3 837 838 918
3 838 839 919
3 839 840 920
3 840 841 921
3 841 842 922
3 842 843 923
3 843 844 924
3 844 845 925
3 845 846 926
3 846 847 927
3 847 848 928
3 848 849 929
3 849 850 930
3 850 851 931
3 851 852 932
3 852 853 933
3 853 854 934
3 854 855 935
3 855 856 936
3 856 857 937
3 857 858 938
3 858 859 939
3 859 860 940
3 860 861 941
3 861 862 942
3 862 863 943
3 863 864 944
3 864 865 945
3 865 866 946
3 866 867 947
3 867 868 948
3 868 869 949
3 869 870 950
3 870 871 951
3 871 872 952
3 872 873 953
3 873 874 954
3 874 875 955
3 875 876 956
3 876 877 957
3 877 878 958
3 878 879 959
3 879 801 881
3 880 881 961
3 881 882 962
3 882 883 963
3 883 884 964
3 884 885 965
3 885 886 966
3 886 887 967
3 887 888 968
3 888 889 969
3 889 890 970
3 890 891 971
3 891 892 972
3 892 893 973
3 893 894 974
3 894 895 975
3 895 896 976
3 896 897 977
3 897 898 978
3 898 899 979
3 899 900 980
3 900 901 981
3 901 902 982
3 902 903 983
3 903 904 984
3 904 905 985
3 905 906 986
3 906 907 987
3 907 908 988
3 908 909 989
3 909 910 990
3 910 911 991
3 911 912 992
3 912 913 993
3 913 914 994
3 914 915 995
3 915 916 996
3 916 917 997
3 917 918 998
3 918 919 999
3 919 920 1000
3 920 921 1001
3 921 922 1002
3 922 923 1003
3 923 924 1004
3 924 925 1005
3 925 926 1006
3 926 927 1007
3 927 928 1008
3 928 929 1009
3 929 930 1010
3 930 931 1011
3 931 932 1012
3 932 933 1013
3 933 934 1014
3 934 935 1015
3 935 936 1016
3 936 937 1017
3 937 938 1018
3 938 939 1019
3 939 940 1020
3 940 941 1021
3 941 942 1022
3 942 943 1023
3 943 944 1024
3 944 945 1025
3 945 946 1026
3 946 947 1027
3 947 948 1028
3 948 949 1029
3 949 950 1030
3 950 951 1031
3 951 952 1032
3 952 953 1033
3 953 954 1034
3 954 955 1035
3 955 956 1036
3 956 957 1037
3 957 958 1038
3 958 959 1039
3 959 881 961
3 0 80 81
3 1 81 82
3 2 82 83
3 3 83 84
3 4 84 85
3 5 85 86
3 6 86 87
3 7 87 88
3 8 88 89
3 9 89 90
3 10 90 91
3 11 91 92
3 12 92 93
3 13 93 94
3 14 94 95
3 15 95 96
3 16 96 97
3 17 97 98
3 18 98 99
3 19 99 100
3 20 100 101
3 21 101 102
3 22 102 103
3 23 103 104
3 24 104 105
3 25 105 106
3 26 106 107
3 27 107 108
3 28 108 109
3 29 109 110
3 30 110 111
3 31 111 112
3 32 112 113
3 33 113 114
3 34 114 115
3 35 115 116
3 36 116 117
3 37 117 118
3 38 118 119
3 39 119 120
3 40 120 121
3 41 121 122
3 42 122 123
3 43 123 124
3 44 124 125
3 45 125 126
3 46 126 127
3 47 127 128
3 48 128 129
3 49 129 130
3 50 130 131
3 51 131 132
3 52 132 133
3 53 133 134
3 54 134 135
3 55 135 136
3 56 136 137
3 57 137 138
3 58 138 139
3 59 139 140
3 60 140 141
3 61 141 142
3 62 142 143
3 63 143 144
3 64 144 145
3 65 145 146
3 66 146 147
3 67 147 148
3 68 148 149
3 69 149 150
3 70 150 151
3 71 151 152
3 72 152 153
3 73 153 154
3 74 154 155
3 75 155 156
3 76 156 157
3 77 157 158
3 78 158 159
3 79 159 81
3 80 160 161
3 81 161 162
3 82 162 163
3 83 163 164
3 84 164 165
3 85 165 166
3 86 166 167
3 87 167 168
3 88 168 169
3 89 169 170
3 90 170 171
3 91 171 172
3 92 172 173
3 93 173 174
3 94 174 175
3 95 175 176
3 96 176 177
3 97 177 178
3 98 178 179
3 99 179 180
3 100 180 181
3 101 181 182
3 102 182 183
3 103 183 184
3 104 184 185
3 105 185 186
3 106 186 187
3 107 187 188
3 108 188 189
3 109 189 190
3 110 190 191
3 111 191 192
3 112 192 193
3 113 193 194
3 114 194 195
3 115 195 196
3 116 196 197
3 117 197 198
3 118 198 199
3 119 199 200
3 120 200 201
3 121 201 202
3 122 202 203
3 123 203 204
3 124 204 205
3 125 205 206
3 126 206 207
3 127 207 208
3 128 208 209
3 129 209 210
3 130 210 211
3 131 211 212
3 132 212 213
3 133 213 214
3 134 214 215
3 135 215 216
3 136 216 217
3 137 217 218
3 138 218 219
3 139 219 220
3 140 220 221
3 141 221 222
3 142 222 223
3 143 223 224
3 144 224 225
3 145 225 226
3 146 226 227
3 147 227 228
3 148 228 229
3 149 229 230
3 150 230 231
3 151 231 232
3 152 232 233
3 153 233 234
3 154 234 235
3 155 235 236
3 156 236 237
3 157 237 238
3 158 238 239
3 159 239 161
3 160 240 241
3 161 241 242
3 162 242 243
3 163 243 244
3 164 244 245
3 165 245 246
3 166 246 247
3 167 247 248
3 168 248 249
3 169 249 250
3 170 250 251
3 171 251 252
3 172 252 253
3 173 253 254
3 174 254 255
3 175 255 256
3 176 256 257
3 177 257 258
3 178 258 259
3 179 259 260
3 180 260 261
3 181 261 262
3 182 262 263
3 183 263 264
3 184 264 265
3 185 265 266
3 186 266 267
3 187 267 268
3 188 268 269
3 189 269 270
3 190 270 271
3 191 271 272
3 192 272 273
3 193 273 274
3 194 274 275
3 195 275 276
3 196 276 277
3 197 277 278
3 198 278 279
3 199 279 280
3 200 280 281
3 201 281 282
3 202 282 283
3 203 283 284
3 204 284 285
3 205 285 286
3 206 286 287
3 207 287 288
3 208 288 289
3 209 289 290
3 210 290 291
3 211 291 292
3 212 292 293
3 213 293 294
3 214 294 295
3 215 295 296
3 216 296 297
3 217 297 298
3 218 298 299
3 219 299 300
3 220 300 301
3 221 301 302
3 222 302 303
3 223 303 304
3 224 304 305
3 225 305 306
3 226 306 307
3 227 307 308
3 228 308 309
3 229 309 310
3 230 310 311
3 231 311 312
3 232 312 313
3 233 313 314
3 234 314 315
3 235 315 316
3 236 316 317
3 237 317 318
3 238 318 319
3 239 319 241
3 240 320 321
3 241 321 322
3 242 322 323
3 243 323 324
3 244 324 325
3 245 325 326
3 246 326 327
3 247 327 328
3 248 328 329
3 249 329 330
3 250 330 331
3 251 331 332
3 252 332 333
3 253 333 334
3 254 334 335
3 255 335 336
3 256 336 337
3 257 337 338
3 258 338 339
3 259 339 340
3 260 340 341
3 261 341 342
3 262 342 343
3 263 343 344
3 264 344 345
3 265 345 346
3 266 346 347
3 267 347 348
3 268 348 349
3 269 349 350
3 270 350 351
3 271 351 352
3 272 352 353
3 273 353 354
3 274 354 355
3 275 355 356
3 276 356 357
3 277 357 358
3 278 358 359
3 279 359 360
3 280 360 361
3 281 361 362
3 282 362 363
3 283 363 364
3 284 364 365
3 285 365 366
3 286 366 367
3 287 367 368
3 288 368 369
3 289 369 370
3 290 370 371
3 291 371 372
3 292 372 373
3 293 373 374
3 294 374 375
3 295 375 376
3 296 376 377
3 297 377 378
3 298 378 379
3 299 379 380
3 300 380 381
3 301 381 382
3 302 382 383
3 303 383 384
3 304 384 385
3 305 385 386
3 306 386 387
3 307 387 388
3 308 388 389
3 309 389 390
3 310 390 391
3 311 391 392
3 312 392 393
3 313 393 394
3 314 394 395
3 315 395 396
3 316 396 397
3 317 397 398
3 318 398 399
3 319 399 321
3 320 400 401
3 321 401 402
3 322 402 403
3 323 403 404
3 324 404 405
3 325 405 406
3 326 406 407
3 327 407 408
3 328 408 409
3 329 409 410
3 330 410 411
3 331 411 412
3 332 412 413
3 333 413 414
3 334 414 415
3 335 415 416
3 336 416 417
3 337 417 418
3 338 418 419
3 339 419 420
3 340 420 421
3 341 421 422
3 342 422 423
3 343 423 424
3 344 424 425
3 345 425 426
3 346 426 427
3 347 427 428
3 348 428 429
3 349 429 430
3 350 430 431
3 351 431 432
3 352 432 433
3 353 433 434
3 354 434 435
3 355 435 436
3 356 436 437
3 357 437 438
3 358 438 439
3 359 439 440
3 360 440 441
3 361 441 442
3 362 442 443
3 363 443 444
3 364 444 445
3 365 445 446
3 366 446 447
3 367 447 448
3 368 448 449
3 369 449 450
3 370 450 451
3 371 451 452
3 372 452 453
3 373 453 454
3 374 454 455
3 375 455 456
3 376 456 457
3 377 457 458
3 378 458 459
3 379 459 460
3 380 460 461
3 381 461 462
3 382 462 463
3 383 463 464
3 384 464 465
3 385 465 466
3 386 466 467
3 387 467 468
3 388 468 469
3 389 469 470
3 390 470 471
3 391 471 472
3 392 472 473
3 393 473 474
3 394 474 475
3 395 475 476
3 396 476 477
3 397 477 478
3 398 478 479
3 399 479 401
3 400 480 481
3 401 481 482
3 402 482 483
3 403 483 484
3 404 484 485
3 405 485 486
3 406 486 487
3 407 487 488
3 408 488 489
3 409 489 490
3 410 490 491
3 411 491 492
3 412 492 493
3 413 493 494
3 414 494 495
3 415 495 496
3 416 496 497
3 417 497 498
3 418 498 499
3 419 499 500
3 420 500 501
3 421 501 502
3 422 502 503
3 423 503 504
3 424 504 505
3 425 505 506
3 426 506 507
3 427 507 508
3 428 508 509
3 429 509 510
3 430 510 511
3 431 511 512
3 432 512 513
3 433 513 514
3 434 514 515
3 435 515 516
3 436 516 517
3 437 517 518
3 438 518 519
3 439 519 520
3 440 520 521
3 441 521 522
3 442 522 523
3 443 523 524
3 444 524 525
3 445 525 526
3 446 526 527
3 447 527 528
3 448 528 529
3 449 529 530
3 450 530 531
3 451 531 532
3 452 532 533
3 453 533 534
3 454 534 535
3 455 535 536
3 456 536 537
3 457 537 538
3 458 538 539
3 459 539 540
3 460 540 541
3 461 541 542
3 462 542 543
3 463 543 544
3 464 544 545
3 465 545 546
3 466 546 547
3 467 547 548
3 468 548 549
3 469 549 550
3 470 550 551
3 471 551 552
3 472 552 553
3 473 553 554
3 474 554 555
3 475 555 556
3 476 556 557
3 477 557 558
3 478 558 559
3 479 559 481
3 480 560 561
3 481 561 562
3 482 562 563
3 483 563 564
3 484 564 565
3 485 565 566
3 486 566 567
3 487 567 568
3 488 568 569
3 489 569 570
3 490 570 571
3 491 571 572
3 492 572 573
3 493 573 574
3 494 574 575
3 495 575 576
3 496 576 577
3 497 577 578
3 498 578 579
3 499 579 580
3 500 580 581
3 501 581 582
3 502 582 583
3 503 583 584
3 504 584 585
3 505 585 586
3 506 586 587
3 507 587 588
3 508 588 589
3 509 589 590
3 510 590 591
3 511 591 592
3 512 592 593
3 513 593 594
3 514 594 595
3 515 595 596
3 516 596 597
3 517 597 598
3 518 598 599
3 519 599 600
3 520 600 601
3 521 601 602
3 522 602 603
3 523 603 604
3 524 604 605
3 525 605 606
3 526 606 607
3 527 607 608
3 528 608 609
3 529 609 610
3 530 610 611
3 531 611 612
3 532 612 613
3 533 613 614
3 534 614 615
3 535 615 616
3 536 616 617
3 537 617 618
3 538 618 619
3 539 619 620
3 540 620 621
3 541 621 622
3 542 622 623
3 543 623 624
3 544 624 625
3 545 625 626
3 546 626 627
3 547 627 628
3 548 628 629
3 549 629 630
3 550 630 631
3 551 631 632
3 552 632 633
3 553 633 634
3 554 634 635
3 555 635 636
3 556 636 637
3 557 637 638
3 558 638 639
3 559 639 561
3 560 640 641
3 561 641 642
3 562 642 643
3 563 643 644
3 564 644 645
3 565 645 646
3 566 646 647
3 567 647 648
3 568 648 649
3 569 649 650
3 570 650 651
3 571 651 652
3 572 652 653
3 573 653 654
3 574 654 655
3 575 655 656
3 576 656 657
3 577 657 658
3 578 658 659
3 579 659 660
3 580 660 661
3 581 661 662
3 582 662 663
3 583 663 664
3 584 664 665
3 585 665 666
3 586 666 667
3 587 667 668
3 588 668 669
3 589 669 670
3 590 670 671
3 591 671 672
3 592 672 673
3 593 673 674
3 594 674 675
3 595 675 676
3 596 676 677
3 597 677 678
3 598 678 679
3 599 679 680
3 600 680 681
3 601 681 682
3 602 682 683
3 603 683 684
3 604 684 685
3 605 685 686
3 606 686 687
3 607 687 688
3 608 688 689
3 609 689 690
3 610 690 691
3 611 691 692
3 612 692 693
3 613 693 694
3 614 694 695
3 615 695 696
3 616 696 697
3 617 697 698
3 618 698 699
3 619 699 700
3 620 700 701
3 621 701 702
3 622 702 703
3 623 703 704
3 624 704 705
3 625 705 706
3 626 706 707
3 627 707 708
3 628 708 709
3 629 709 710
3 630 710 711
3 631 711 712
3 632 712 713
3 633 713 714
3 634 714 715
3 635 715 716
3 636 716 717
3 637 717 718
3 638 718 719
3 639 719 641
3 640 720 721
3 641 721 722
3 642 722 723
3 643 723 724
3 644 724 725
3 645 725 726
3 646 726 727
3 647 727 728
3 648 728 729
3 649 729 730
3 650 730 731
3 651 731 732
3 652 732 733
3 653 733 734
3 654 734 735
3 655 735 736
3 656 736 737
3 657 737 738
3 658 738 739
3 659 739 740
3 660 740 741
3 661 741 742
3 662 742 743
3 663 743 744
3 664 744 745
3 665 745 746
3 666 746 747
3 667 747 748
3 668 748 749
3 669 749 750
3 670 750 751
3 671 751 752
3 672 752 753
3 673 753 754
3 674 754 755
3 675 755 756
3 676 756 757
3 677 757 758
3 678 758 759
3 679 759 760
3 680 760 761
3 681 761 762
3 682 762 763
3 683 763 764
3 684 764 765
3 685 765 766
3 686 766 767
3 687 767 768
3 688 768 769
3 689 769 770
3 690 770 771
3 691 771 772
3 692 772 773
3 693 773 774
3 694 774 775
3 695 775 776
3 696 776 777
3 697 777 778
3 698 778 779
3 699 779 780
3 700 780 781
3 701 781 782
3 702 782 783
3 703 783 784
3 704 784 785
3 705 785 786
3 706 786 787
3 707 787 788
3 708 788 789
3 709 789 790
3 710 790 791
3 711 791 792
3 712 792 793
3 713 793 794
3 714 794 795
3 715 795 796
3 716 796 797
3 717 797 798
3 718 798 799
3 719 799 721
3 720 800 801
3 721 801 802
3 722 802 803
3 723 803 804
3 724 804 805
3 725 805 806
3 726 806 807
3 727 807 808
3 728 808 809
3 729 809 810
3 730 810 811
3 731 811 812
3 732 812 813
3 733 813 814
3 734 814 815
3 735 815 816
3 736 816 817
3 737 817 818
3 738 818 819
3 739 819 820
3 740 820 821
3 741 821 822
3 742 822 823
3 743 823 824
3 744 824 825
3 745 825 826
3 746 826 827
3 747 827 828
3 748 828 829
3 749 829 830
3 750 830 831
3 751 831 832
3 752 832 833
3 753 833 834
3 754 834 835
3 755 835 836
3 756 836 837
3 757 837 838
3 758 838 839
3 759 839 840
3 760 840 841
3 761 841 842
3 762 842 843
3 763 843 844
3 764 844 845
3 765 845 846
3 766 846 847
3 767 847 848
3 768 848 849
3 769 849 850
3 770 850 851
3 771 851 852
3 772 852 853
3 773 853 854
3 774 854 855
3 775 855 856
3 776 856 857
3 777 857 858
3 778 858 859
3 779 859 860
3 780 860 861
3 781 861 862
3 782 862 863
3 783 863 864
3 784 864 865
3 785 865 866
3 786 866 867
3 787 867 868
3 788 868 869
3 789 869 870
3 790 870 871
3 791 871 872
3 792 872 873
3 793 873 874
3 794 874 875
3 795 875 876
3 796 876 877
3 797 877 878
3 798 878 879
3 799 879 801
3 800 880 881
3 801 881 882
3 802 882 883
3 803 883 884
3 804 884 885
3 805 885 886
3 806 886 887
3 807 887 888
3 808 888 889
3 809 889 890
3 810 890 891
3 811 891 892
3 812 892 893
3 813 893 894
3 814 894 895
3 815 895 896
3 816 896 897
3 817 897 898
3 818 898 899
3 819 899 900
3 820 900 901
3 821 901 902
3 822 902 903
3 823 903 904
3 824 904 905
3 825 905 906
3 826 906 907
3 827 907 908
3 828 908 909
3 829 909 910
3 830 910 911
3 831 911 912
3 832 912 913
3 833 913 914
3 834 914 915
3 835 915 916
3 836 916 917
3 837 917 918
3 838 918 919
3 839 919 920
3 840 920 921
3 841 921 922
3 842 922 923
3 843 923 924
3 844 924 925
3 845 925 926
3 846 926 927
3 847 927 928
3 848 928 929
3 849 929 930
3 850 930 931
3 851 931 932
3 852 932 933
3 853 933 934
3 854 934 935
3 855 935 936
3 856 936 937
3 857 937 938
3 858 938 939
3 859 939 940
3 860 940 941
3 861 941 942
3 862 942 943
3 863 943 944
3 864 944 945
3 865 945 946
3 866 946 947
3 867 947 948
3 868 948 949
3 869 949 950
3 870 950 951
3 871 951 952
3 872 952 953
3 873 953 954
3 874 954 955
3 875 955 956
3 876 956 957
3 877 957 958
3 878 958 959
3 879 959 881
3 880 960 961
3 881 961 962
3 882 962 963
3 883 963 964
3 884 964 965
3 885 965 966
3 886 966 967
3 887 967 968
3 888 968 969
3 889 969 970
3 890 970 971
3 891 971 972
3 892 972 973
3 893 973 974
3 894 974 975
3 895 975 976
3 896 976 977
3 897 977 978
3 898 978 979
3 899 979 980
3 900 980 981
3 901 981 982
3 902 982 983
3 903 983 984
3 904 984 985
3 905 985 986
3 906 986 987
3 907 987 988
3 908 988 989
3 909 989 990
3 910 990 991
3 911 991 992
3 912 992 993
3 913 993 994
3 914 994 995
3 915 995 996
3 916 996 997
3 917 997 998
3 918 998 999
3 919 999 1000
3 920 1000 1001
3 921 1001 1002
3 922 1002 1003
3 923 1003 1004
3 924 1004 1005
3 925 1005 1006
3 926 1006 1007
3 927 1007 1008
3 928 1008 1009
3 929 1009 1010
3 930 1010 1011
3 931 1011 1012
3 932 1012 1013
3 933 1013 1014
3 934 1014 1015
3 935 1015 1016
3 936 1016 1017
3 937 1017 1018
3 938 1018 1019
3 939 1019 1020
3 940 1020 1021
3 941 1021 1022
3 942 1022 1023
3 943 1023 1024
3 944 1024 1025
3 945 1025 1026
3 946 1026 1027
3 947 1027 1028
3 948 1028 1029
3 949 1029 1030
3 950 1030 1031
3 951 1031 1032
3 952 1032 1033
3 953 1033 1034
3 954 1034 1035
3 955 1035 1036
3 956 1036 1037
3 957 1037 1038
3 958 1038 1039
3 959 1039 961
3 5 4 3
3 3 9 5
3 5 9 6
3 10 3 2
3 8 7 9
3 9 7 6
3 9 3 10
3 2 11 10
3 2 1 11
3 12 1 0
3 13 0 14
3 0 13 12
3 14 0 15
3 65 16 15
3 63 18 17
3 62 19 18
3 17 16 64
3 19 61 20
3 1 12 11
3 33 32 31
3 33 31 34
3 37 31 30
3 38 30 29
3 34 31 35
3 37 36 35
3 35 31 37
3 30 38 37
3 29 39 38
3 60 21 20
3 58 23 22
3 57 24 23
3 22 21 59
3 40 39 28
3 39 29 28
3 26 25 40
3 40 28 27
3 40 27 26
3 24 56 25
3 0 65 15
3 66 65 0
3 0 68 67
3 67 66 0
3 79 68 0
3 62 18 63
3 60 20 61
3 59 21 60
3 61 19 62
3 68 79 69
3 65 64 16
3 70 78 77
3 76 75 77
3 77 75 71
3 74 71 75
3 69 78 70
3 71 73 72
3 71 70 77
3 73 71 74
3 78 69 79
3 57 23 58
3 55 40 25
3 55 25 56
3 56 24 57
3 40 54 53
3 54 40 55
3 52 41 40
3 51 41 52
3 52 40 53
3 22 59 58
3 42 51 50
3 49 48 47
3 50 49 43
3 47 46 49
3 42 50 43
3 45 43 49
3 45 44 43
3 46 45 49
3 51 42 41
3 63 17 64
3 965 964 963
3 963 969 965
3 965 969 966
3 970 963 962
3 968 967 969
3 969 967 966
3 969 963 970
3 962 971 970
3 962 961 971
3 972 961 960
3 973 960 974
3 960 973 972
3 974 960 975
3 1025 976 975
3 1023 978 977
3 1022 979 978
3 977 976 1024
3 979 1021 980
3 961 972 971
3 993 992 991
3 993 991 994
3 997 991 990
3 998 990 989
3 994 991 995
3 997 996 995
3 995 991 997
3 990 998 997
3 989 999 998
3 1020 981 980
3 1018 983 982
3 1017 984 983
3 982 981 1019
3 1000 999 988
3 999 989 988
3 986 985 1000
3 1000 988 987
3 1000 987 986
3 984 1016 985
3 960 1025 975
3 1026 1025 960
3 960 1028 1027
3 1027 1026 960
3 1039 1028 960
3 1022 978 1023
3 1020 980 1021
3 1019 981 1020
3 1021 979 1022
3 1028 1039 1029
3 1025 1024 976
3 1030 1038 1037
3 1036 1035 1037
3 1037 1035 1031
3 1034 1031 1035
3 1029 1038 1030
3 1031 1033 1032
3 1031 1030 1037
3 1033 1031 1034
3 1038 1029 1039
3 1017 983 1018
3 1015 1000 985
3 1015 985 1016
3 1016 984 1017
3 1000 1014 1013
3 1014 1000 1015
3 1012 1001 1000
3 1011 1001 1012
3 1012 1000 1013
3 982 1019 1018
3 1002 1011 1010
3 1009 1008 1007
3 1010 1009 1003
3 1007 1006 1009
3 1002 1010 1003
3 1005 1003 1009
3 1005 1004 1003
3 1006 1005 1009
3 1011 1002 1001
3 1023 977 1024
